<svg width="20" height="20" viewBox="0 0 20 20" fill="none" xmlns="http://www.w3.org/2000/svg">
<path fill-rule="evenodd" clip-rule="evenodd" d="M4.44431 1.6853C6.0888 0.58649 8.0222 0 10 0C12.6513 0.00297764 15.1931 1.0575 17.0678 2.93222C18.9425 4.80694 19.997 7.34875 20 10C20 11.9778 19.4135 13.9112 18.3147 15.5557C17.2159 17.2002 15.6541 18.4819 13.8269 19.2388C11.9996 19.9957 9.98892 20.1937 8.04911 19.8079C6.1093 19.422 4.32747 18.4696 2.92894 17.0711C1.53041 15.6725 0.578004 13.8907 0.192152 11.9509C-0.193701 10.0111 0.00433286 8.00043 0.76121 6.17317C1.51809 4.3459 2.79981 2.78412 4.44431 1.6853ZM5.37026 16.9289C6.74067 17.8446 8.35183 18.3333 10 18.3333C12.2094 18.3308 14.3275 17.452 15.8898 15.8898C17.4521 14.3275 18.3308 12.2094 18.3334 10C18.3334 8.35182 17.8446 6.74066 16.9289 5.37025C16.0133 3.99984 14.7118 2.93173 13.189 2.301C11.6663 1.67027 9.99077 1.50525 8.37426 1.82679C6.75775 2.14833 5.27289 2.94201 4.10745 4.10744C2.94201 5.27288 2.14834 6.75774 1.8268 8.37425C1.50525 9.99076 1.67028 11.6663 2.30101 13.189C2.93174 14.7117 3.99985 16.0132 5.37026 16.9289ZM5.83323 3.76398C7.0666 2.93987 8.51664 2.5 10 2.5C11.9884 2.50223 13.8948 3.29313 15.3008 4.69916C16.7069 6.1052 17.4978 8.01156 17.5 10C17.5 11.4834 17.0601 12.9334 16.236 14.1668C15.4119 15.4001 14.2406 16.3614 12.8701 16.9291C11.4997 17.4967 9.99168 17.6453 8.53683 17.3559C7.08197 17.0665 5.7456 16.3522 4.6967 15.3033C3.64781 14.2544 2.9335 12.918 2.64411 11.4632C2.35472 10.0083 2.50325 8.50032 3.07091 7.12987C3.63856 5.75943 4.59986 4.58809 5.83323 3.76398ZM10.463 6.80711C10.3259 6.71554 10.1648 6.66666 10 6.66666C9.77899 6.66666 9.56703 6.75446 9.41075 6.91074C9.25447 7.06702 9.16667 7.27898 9.16667 7.5C9.16667 7.66481 9.21554 7.82593 9.30711 7.96297C9.39868 8.10001 9.52883 8.20682 9.6811 8.2699C9.7827 8.31198 9.89109 8.33333 10 8.33333L8.33334 10.8333L6.14584 9.47916L6.66667 13.3333H13.3333L13.75 9.47916L11.6667 10.8333L10 8.33333C10.0543 8.33333 10.1088 8.32802 10.1626 8.31732C10.3242 8.28516 10.4727 8.2058 10.5893 8.08925C10.7058 7.97271 10.7852 7.82422 10.8173 7.66257C10.8495 7.50092 10.833 7.33337 10.7699 7.18109C10.7068 7.02882 10.6 6.89867 10.463 6.80711ZM5.14045 7.87035C5.04888 8.0074 5 8.16851 5 8.33333C5 8.55434 5.0878 8.7663 5.24408 8.92258C5.40036 9.07887 5.61232 9.16666 5.83334 9.16666C5.99815 9.16666 6.15927 9.11779 6.29631 9.02622C6.43335 8.93465 6.54016 8.8045 6.60324 8.65223C6.66631 8.49996 6.68281 8.33241 6.65066 8.17075C6.6185 8.0091 6.53914 7.86062 6.42259 7.74407C6.30605 7.62753 6.15756 7.54816 5.99591 7.51601C5.83426 7.48385 5.66671 7.50036 5.51443 7.56343C5.36216 7.6265 5.23201 7.73331 5.14045 7.87035ZM13.7037 9.02622C13.8407 9.11779 14.0019 9.16666 14.1667 9.16666C14.3877 9.16666 14.5996 9.07887 14.7559 8.92258C14.9122 8.7663 15 8.55434 15 8.33333C15 8.16851 14.9511 8.0074 14.8596 7.87035C14.768 7.73331 14.6378 7.6265 14.4856 7.56343C14.3333 7.50036 14.1657 7.48385 14.0041 7.51601C13.8424 7.54816 13.694 7.62753 13.5774 7.74407C13.4609 7.86062 13.3815 8.0091 13.3493 8.17075C13.3172 8.33241 13.3337 8.49996 13.3968 8.65223C13.4598 8.8045 13.5667 8.93465 13.7037 9.02622Z" fill="url(#paint0_linear_5111_8164)"/>
<defs>
<linearGradient id="paint0_linear_5111_8164" x1="-2.07684e-07" y1="9.99993" x2="19.5001" y2="10.9999" gradientUnits="userSpaceOnUse">
<stop stop-color="#00A3FF"/>
<stop offset="1" stop-color="#D7EDA2"/>
</linearGradient>
</defs>
</svg>
